<?xml version="1.0" encoding="UTF-8"?>
<svg xmlns="http://www.w3.org/2000/svg" xmlns:xlink="http://www.w3.org/1999/xlink" width="75px" height="75px" viewBox="0 0 75 75" version="1.1">
<g id="surface1">
<path style=" stroke:none;fill-rule:nonzero;fill:rgb(17.647059%,31.372549%,65.490196%);fill-opacity:1;" d="M 35.796875 54.546875 C 33.914062 54.546875 32.386719 56.070312 32.386719 57.953125 L 32.386719 71.589844 C 32.386719 73.472656 33.914062 75 35.796875 75 C 37.679688 75 39.203125 73.472656 39.203125 71.589844 L 39.203125 57.953125 C 39.203125 56.070312 37.679688 54.546875 35.796875 54.546875 Z M 35.796875 54.546875 "/>
<path style=" stroke:none;fill-rule:nonzero;fill:rgb(45.098039%,63.137255%,98.431373%);fill-opacity:1;" d="M 35.796875 0 C 33.914062 0 32.386719 1.527344 32.386719 3.410156 L 32.386719 17.046875 C 32.386719 18.929688 33.914062 20.453125 35.796875 20.453125 C 37.679688 20.453125 39.203125 18.929688 39.203125 17.046875 L 39.203125 3.410156 C 39.203125 1.527344 37.679688 0 35.796875 0 Z M 35.796875 0 "/>
<path style=" stroke:none;fill-rule:nonzero;fill:rgb(20.784314%,36.862745%,78.823529%);fill-opacity:1;" d="M 52.667969 49.554688 C 51.339844 48.222656 49.179688 48.222656 47.847656 49.554688 C 46.515625 50.882812 46.515625 53.042969 47.847656 54.375 L 57.492188 64.015625 C 58.15625 64.683594 59.027344 65.015625 59.902344 65.015625 C 60.773438 65.015625 61.644531 64.683594 62.3125 64.015625 C 63.644531 62.683594 63.644531 60.527344 62.3125 59.195312 Z M 52.667969 49.554688 "/>
<path style=" stroke:none;fill-rule:nonzero;fill:rgb(76.862745%,85.098039%,99.215686%);fill-opacity:1;" d="M 11.933594 34.089844 L 5.113281 34.089844 C 3.230469 34.089844 1.703125 35.617188 1.703125 37.5 C 1.703125 39.382812 3.230469 40.910156 5.113281 40.910156 L 11.933594 40.910156 C 13.816406 40.910156 15.339844 39.382812 15.339844 37.5 C 15.339844 35.617188 13.816406 34.089844 11.933594 34.089844 Z M 11.933594 34.089844 "/>
<path style=" stroke:none;fill-rule:nonzero;fill:rgb(76.862745%,85.098039%,99.215686%);fill-opacity:1;" d="M 14.101562 10.984375 C 12.769531 9.652344 10.609375 9.652344 9.277344 10.984375 C 7.949219 12.316406 7.949219 14.472656 9.277344 15.804688 L 18.921875 25.445312 C 19.585938 26.113281 20.460938 26.445312 21.332031 26.445312 C 22.203125 26.445312 23.078125 26.113281 23.742188 25.445312 C 25.074219 24.117188 25.074219 21.957031 23.742188 20.625 Z M 14.101562 10.984375 "/>
<path style=" stroke:none;fill-rule:nonzero;fill:rgb(23.921569%,42.745098%,92.156863%);fill-opacity:1;" d="M 69.886719 34.089844 L 56.25 34.089844 C 54.367188 34.089844 52.839844 35.617188 52.839844 37.5 C 52.839844 39.382812 54.367188 40.910156 56.25 40.910156 L 69.886719 40.910156 C 71.769531 40.910156 73.296875 39.382812 73.296875 37.5 C 73.296875 35.617188 71.769531 34.089844 69.886719 34.089844 Z M 69.886719 34.089844 "/>
<path style=" stroke:none;fill-rule:nonzero;fill:rgb(32.156863%,52.54902%,98.039216%);fill-opacity:1;" d="M 57.492188 10.984375 L 47.847656 20.625 C 46.515625 21.957031 46.515625 24.117188 47.847656 25.445312 C 48.515625 26.113281 49.386719 26.445312 50.257812 26.445312 C 51.132812 26.445312 52.003906 26.113281 52.667969 25.445312 L 62.3125 15.804688 C 63.644531 14.472656 63.644531 12.316406 62.3125 10.984375 C 60.980469 9.652344 58.820312 9.652344 57.492188 10.984375 Z M 57.492188 10.984375 "/>
</g>
</svg>
