<?xml version="1.0" encoding="UTF-8"?>
<svg xmlns="http://www.w3.org/2000/svg" xmlns:xlink="http://www.w3.org/1999/xlink" width="50px" height="50px" viewBox="0 0 50 50" version="1.1">
<g id="surface1">
<path style=" stroke:none;fill-rule:nonzero;fill:rgb(17.647059%,31.372549%,65.490196%);fill-opacity:1;" d="M 23.863281 36.363281 C 22.609375 36.363281 21.589844 37.382812 21.589844 38.636719 L 21.589844 47.726562 C 21.589844 48.984375 22.609375 50 23.863281 50 C 25.117188 50 26.136719 48.984375 26.136719 47.726562 L 26.136719 38.636719 C 26.136719 37.382812 25.117188 36.363281 23.863281 36.363281 Z M 23.863281 36.363281 "/>
<path style=" stroke:none;fill-rule:nonzero;fill:rgb(45.098039%,63.137255%,98.431373%);fill-opacity:1;" d="M 23.863281 0 C 22.609375 0 21.589844 1.015625 21.589844 2.273438 L 21.589844 11.363281 C 21.589844 12.617188 22.609375 13.636719 23.863281 13.636719 C 25.117188 13.636719 26.136719 12.617188 26.136719 11.363281 L 26.136719 2.273438 C 26.136719 1.015625 25.117188 0 23.863281 0 Z M 23.863281 0 "/>
<path style=" stroke:none;fill-rule:nonzero;fill:rgb(20.784314%,36.862745%,78.823529%);fill-opacity:1;" d="M 35.113281 33.035156 C 34.226562 32.148438 32.785156 32.148438 31.898438 33.035156 C 31.011719 33.921875 31.011719 35.363281 31.898438 36.25 L 38.328125 42.675781 C 38.769531 43.121094 39.351562 43.34375 39.933594 43.34375 C 40.515625 43.34375 41.097656 43.121094 41.542969 42.675781 C 42.429688 41.789062 42.429688 40.351562 41.542969 39.464844 Z M 35.113281 33.035156 "/>
<path style=" stroke:none;fill-rule:nonzero;fill:rgb(76.862745%,85.098039%,99.215686%);fill-opacity:1;" d="M 7.953125 22.726562 L 3.410156 22.726562 C 2.152344 22.726562 1.136719 23.746094 1.136719 25 C 1.136719 26.253906 2.152344 27.273438 3.410156 27.273438 L 7.953125 27.273438 C 9.210938 27.273438 10.226562 26.253906 10.226562 25 C 10.226562 23.746094 9.210938 22.726562 7.953125 22.726562 Z M 7.953125 22.726562 "/>
<path style=" stroke:none;fill-rule:nonzero;fill:rgb(76.862745%,85.098039%,99.215686%);fill-opacity:1;" d="M 9.398438 7.324219 C 8.511719 6.433594 7.074219 6.433594 6.1875 7.324219 C 5.296875 8.210938 5.296875 9.648438 6.1875 10.535156 L 12.613281 16.964844 C 13.058594 17.410156 13.640625 17.628906 14.222656 17.628906 C 14.804688 17.628906 15.382812 17.410156 15.828125 16.964844 C 16.714844 16.078125 16.714844 14.636719 15.828125 13.75 Z M 9.398438 7.324219 "/>
<path style=" stroke:none;fill-rule:nonzero;fill:rgb(23.921569%,42.745098%,92.156863%);fill-opacity:1;" d="M 46.589844 22.726562 L 37.5 22.726562 C 36.246094 22.726562 35.226562 23.746094 35.226562 25 C 35.226562 26.253906 36.246094 27.273438 37.5 27.273438 L 46.589844 27.273438 C 47.847656 27.273438 48.863281 26.253906 48.863281 25 C 48.863281 23.746094 47.847656 22.726562 46.589844 22.726562 Z M 46.589844 22.726562 "/>
<path style=" stroke:none;fill-rule:nonzero;fill:rgb(32.156863%,52.54902%,98.039216%);fill-opacity:1;" d="M 38.328125 7.324219 L 31.898438 13.75 C 31.011719 14.636719 31.011719 16.078125 31.898438 16.964844 C 32.34375 17.410156 32.925781 17.628906 33.507812 17.628906 C 34.085938 17.628906 34.667969 17.410156 35.113281 16.964844 L 41.542969 10.535156 C 42.429688 9.648438 42.429688 8.210938 41.542969 7.324219 C 40.652344 6.433594 39.214844 6.433594 38.328125 7.324219 Z M 38.328125 7.324219 "/>
</g>
</svg>
