<?xml version="1.0" encoding="UTF-8"?>
<svg xmlns="http://www.w3.org/2000/svg" xmlns:xlink="http://www.w3.org/1999/xlink" width="100px" height="100px" viewBox="0 0 100 100" version="1.1">
<g id="surface1">
<path style=" stroke:none;fill-rule:nonzero;fill:rgb(17.647059%,31.372549%,65.490196%);fill-opacity:1;" d="M 47.726562 72.726562 C 45.21875 72.726562 43.183594 74.761719 43.183594 77.273438 L 43.183594 95.453125 C 43.183594 97.964844 45.21875 100 47.726562 100 C 50.238281 100 52.273438 97.964844 52.273438 95.453125 L 52.273438 77.273438 C 52.273438 74.761719 50.238281 72.726562 47.726562 72.726562 Z M 47.726562 72.726562 "/>
<path style=" stroke:none;fill-rule:nonzero;fill:rgb(45.098039%,63.137255%,98.431373%);fill-opacity:1;" d="M 47.726562 0 C 45.21875 0 43.183594 2.035156 43.183594 4.546875 L 43.183594 22.726562 C 43.183594 25.238281 45.21875 27.273438 47.726562 27.273438 C 50.238281 27.273438 52.273438 25.238281 52.273438 22.726562 L 52.273438 4.546875 C 52.273438 2.035156 50.238281 0 47.726562 0 Z M 47.726562 0 "/>
<path style=" stroke:none;fill-rule:nonzero;fill:rgb(20.784314%,36.862745%,78.823529%);fill-opacity:1;" d="M 70.226562 66.070312 C 68.453125 64.296875 65.574219 64.296875 63.796875 66.070312 C 62.023438 67.84375 62.023438 70.722656 63.796875 72.5 L 76.65625 85.355469 C 77.542969 86.242188 78.703125 86.6875 79.867188 86.6875 C 81.03125 86.6875 82.195312 86.242188 83.082031 85.355469 C 84.859375 83.578125 84.859375 80.703125 83.082031 78.925781 Z M 70.226562 66.070312 "/>
<path style=" stroke:none;fill-rule:nonzero;fill:rgb(76.862745%,85.098039%,99.215686%);fill-opacity:1;" d="M 15.910156 45.453125 L 6.816406 45.453125 C 4.308594 45.453125 2.273438 47.488281 2.273438 50 C 2.273438 52.511719 4.308594 54.546875 6.816406 54.546875 L 15.910156 54.546875 C 18.417969 54.546875 20.453125 52.511719 20.453125 50 C 20.453125 47.488281 18.417969 45.453125 15.910156 45.453125 Z M 15.910156 45.453125 "/>
<path style=" stroke:none;fill-rule:nonzero;fill:rgb(76.862745%,85.098039%,99.215686%);fill-opacity:1;" d="M 18.800781 14.644531 C 17.023438 12.871094 14.148438 12.871094 12.371094 14.644531 C 10.597656 16.421875 10.597656 19.296875 12.371094 21.074219 L 25.226562 33.929688 C 26.117188 34.816406 27.28125 35.261719 28.441406 35.261719 C 29.605469 35.261719 30.769531 34.816406 31.65625 33.929688 C 33.429688 32.15625 33.429688 29.277344 31.65625 27.5 Z M 18.800781 14.644531 "/>
<path style=" stroke:none;fill-rule:nonzero;fill:rgb(23.921569%,42.745098%,92.156863%);fill-opacity:1;" d="M 93.183594 45.453125 L 75 45.453125 C 72.488281 45.453125 70.453125 47.488281 70.453125 50 C 70.453125 52.511719 72.488281 54.546875 75 54.546875 L 93.183594 54.546875 C 95.691406 54.546875 97.726562 52.511719 97.726562 50 C 97.726562 47.488281 95.691406 45.453125 93.183594 45.453125 Z M 93.183594 45.453125 "/>
<path style=" stroke:none;fill-rule:nonzero;fill:rgb(32.156863%,52.54902%,98.039216%);fill-opacity:1;" d="M 76.65625 14.644531 L 63.796875 27.5 C 62.023438 29.277344 62.023438 32.15625 63.796875 33.929688 C 64.683594 34.816406 65.847656 35.261719 67.011719 35.261719 C 68.175781 35.261719 69.339844 34.816406 70.226562 33.929688 L 83.082031 21.074219 C 84.859375 19.296875 84.859375 16.421875 83.082031 14.644531 C 81.308594 12.871094 78.429688 12.871094 76.65625 14.644531 Z M 76.65625 14.644531 "/>
</g>
</svg>
